#N canvas 1309 187 552 664 10;
#X obj 68 17 mrpeach/udpreceive 123456;
#X obj 95 66 mrpeach/unpackOSC;
#X obj 30 149 print;
#X obj 30 128 spigot;
#X obj 63 109 tgl 15 0 empty empty empty 17 7 0 10 -262144 -1 -1 0
1;
#X obj 95 168 spigot;
#X obj 128 149 tgl 15 0 empty empty empty 17 7 0 10 -262144 -1 -1 0
1;
#X obj 95 189 print blob;
#X text 144 146 comment;
#X obj 95 88 mrpeach/routeOSC /b /f;
#X obj 227 142 unpack 0 0 0 0, f 22;
#X floatatom 227 184 5 0 0 0 - - -, f 5;
#X floatatom 270 184 5 0 0 0 - - -, f 5;
#X floatatom 313 184 5 0 0 0 - - -, f 5;
#X floatatom 356 184 5 0 0 0 - - -, f 5;
#X text 234 125 flow in zones from the center;
#X obj 59 257 unpack 0 0 0 0 0;
#X obj 68 39 t b l;
#X floatatom 47 287 5 0 0 0 - - -, f 5;
#X floatatom 82 288 5 0 0 0 - - -, f 5;
#X floatatom 120 289 5 0 0 0 - - -, f 5;
#X floatatom 158 287 5 0 0 0 - - -, f 5;
#X floatatom 194 288 5 0 0 0 - - -, f 5;
#X text 45 306 id;
#X text 161 305 size;
#X text 196 306 zone;
#X text 81 307 rho;
#X text 122 306 théta;
#X obj 65 542 mrpeach/udpsend;
#X msg 91 502 connect localhost 12321;
#X obj 65 473 mrpeach/packOSC;
#X floatatom 65 340 5 0 1 0 - - -, f 5;
#X floatatom 77 387 5 0 0 0 - - -, f 5;
#X msg 77 407 /background/MOG2/backgroundRatio \$1;
#X msg 65 361 /background/MOG2/learningTime \$1;
#X floatatom 82 428 5 0 0 0 - - -, f 5;
#X msg 82 448 /background/MOG2/detectShadows \$1;
#X msg 305 449 /record \$1;
#X obj 305 430 tgl 15 0 empty empty empty 17 7 0 10 -262144 -1 -1 0
1;
#X connect 0 0 17 0;
#X connect 1 0 3 0;
#X connect 1 0 9 0;
#X connect 3 0 2 0;
#X connect 4 0 3 1;
#X connect 5 0 7 0;
#X connect 6 0 5 1;
#X connect 9 0 5 0;
#X connect 9 0 16 0;
#X connect 9 1 10 0;
#X connect 10 0 11 0;
#X connect 10 1 12 0;
#X connect 10 2 13 0;
#X connect 10 3 14 0;
#X connect 16 0 18 0;
#X connect 16 1 19 0;
#X connect 16 2 20 0;
#X connect 16 3 21 0;
#X connect 16 4 22 0;
#X connect 17 1 1 0;
#X connect 29 0 28 0;
#X connect 30 0 28 0;
#X connect 31 0 34 0;
#X connect 32 0 33 0;
#X connect 33 0 30 0;
#X connect 34 0 30 0;
#X connect 35 0 36 0;
#X connect 36 0 30 0;
#X connect 37 0 30 0;
#X connect 38 0 37 0;
