#N canvas 639 245 488 422 10;
#X obj 108 95 mrpeach/udpreceive 123456;
#X obj 135 144 mrpeach/unpackOSC;
#X obj 70 227 print;
#X obj 70 206 spigot;
#X obj 103 187 tgl 15 0 empty empty empty 17 7 0 10 -262144 -1 -1 0
1;
#X obj 135 246 spigot;
#X obj 168 227 tgl 15 0 empty empty empty 17 7 0 10 -262144 -1 -1 0
1;
#X obj 135 267 print blob;
#X text 184 224 comment;
#X obj 135 166 mrpeach/routeOSC /b /f;
#X obj 267 220 unpack 0 0 0 0, f 22;
#X floatatom 267 262 5 0 0 0 - - -, f 5;
#X floatatom 310 262 5 0 0 0 - - -, f 5;
#X floatatom 353 262 5 0 0 0 - - -, f 5;
#X floatatom 396 262 5 0 0 0 - - -, f 5;
#X text 274 203 flow in zones from the center;
#X obj 109 335 unpack 0 0 0 0 0;
#X obj 108 117 t b l;
#X floatatom 97 365 5 0 0 0 - - -, f 5;
#X floatatom 132 366 5 0 0 0 - - -, f 5;
#X floatatom 170 367 5 0 0 0 - - -, f 5;
#X floatatom 208 365 5 0 0 0 - - -, f 5;
#X floatatom 244 366 5 0 0 0 - - -, f 5;
#X text 95 384 id;
#X text 135 387 x;
#X text 173 385 y;
#X text 211 383 size;
#X text 246 384 zone;
#X connect 0 0 17 0;
#X connect 1 0 3 0;
#X connect 1 0 9 0;
#X connect 3 0 2 0;
#X connect 4 0 3 1;
#X connect 5 0 7 0;
#X connect 6 0 5 1;
#X connect 9 0 5 0;
#X connect 9 0 16 0;
#X connect 9 1 10 0;
#X connect 10 0 11 0;
#X connect 10 1 12 0;
#X connect 10 2 13 0;
#X connect 10 3 14 0;
#X connect 16 0 18 0;
#X connect 16 1 19 0;
#X connect 16 2 20 0;
#X connect 16 3 21 0;
#X connect 16 4 22 0;
#X connect 17 1 1 0;
